{
    "asset" : {
        "copyright" : "Copyright 2020 Omabuarts Studio. For more info, visit https://omabuarts.com/license",
        "generator" : "Khronos glTF Blender I/O v1.1.46",
        "version" : "2.0"
    },
    "scene" : 0,
    "scenes" : [
        {
            "name" : "Scene",
            "nodes" : [
                14
            ]
        }
    ],
    "nodes" : [
        {
            "name" : "ear.L",
            "rotation" : [
                0.17346015572547913,
                -0.04689110442996025,
                -0.03450217843055725,
                0.9831187129020691
            ],
            "scale" : [
                0.9999998807907104,
                0.9999999403953552,
                0.9999997019767761
            ],
            "translation" : [
                0.22302067279815674,
                1.0583049058914185,
                0.4402835965156555
            ]
        },
        {
            "name" : "ear.R",
            "rotation" : [
                0.24018408358097076,
                0.05337349697947502,
                0.07400748878717422,
                0.9664294123649597
            ],
            "scale" : [
                0.9999999403953552,
                0.9999999403953552,
                0.9999998211860657
            ],
            "translation" : [
                -0.22319993376731873,
                1.058305025100708,
                0.4403216242790222
            ]
        },
        {
            "name" : "tail.02",
            "rotation" : [
                3.9329490775230624e-09,
                0.9867205619812012,
                -0.1624271273612976,
                4.192771143607388e-07
            ],
            "scale" : [
                0.9999998807907104,
                1.000000238418579,
                1
            ],
            "translation" : [
                -1.656493630550768e-16,
                0.44753316044807434,
                -5.960464477539063e-08
            ]
        },
        {
            "children" : [
                2
            ],
            "name" : "tail.01",
            "rotation" : [
                -2.479719682924042e-07,
                -0.613197922706604,
                0.7899294495582581,
                1.9249301885793102e-07
            ],
            "scale" : [
                1,
                0.999999463558197,
                0.9999985694885254
            ],
            "translation" : [
                -2.0588389391777706e-13,
                0.08352568000555038,
                -0.9872971773147583
            ]
        },
        {
            "children" : [
                0,
                1,
                3
            ],
            "name" : "body",
            "rotation" : [
                0.7071068286895752,
                -7.850462820808426e-17,
                -7.850462820808426e-17,
                0.7071068286895752
            ],
            "translation" : [
                7.643122390210374e-18,
                0.034421563148498535,
                0.8207948207855225
            ]
        },
        {
            "name" : "leg.F.L",
            "rotation" : [
                -2.2197249904820637e-07,
                -0.7071068286895752,
                0.7071068286895752,
                2.2197249904820637e-07
            ],
            "translation" : [
                0.35821333527565,
                -0.3221341371536255,
                0.7199999094009399
            ]
        },
        {
            "name" : "leg.B.L",
            "rotation" : [
                -2.2197249904820637e-07,
                -0.7071068286895752,
                0.7071068286895752,
                2.2197249904820637e-07
            ],
            "translation" : [
                0.35821333527565,
                0.6882361769676208,
                0.7199999094009399
            ]
        },
        {
            "name" : "leg.F.R",
            "rotation" : [
                2.2197249904820637e-07,
                -0.7071068286895752,
                0.7071068286895752,
                -2.2197249904820637e-07
            ],
            "translation" : [
                -0.35821333527565,
                -0.3221341371536255,
                0.7199999094009399
            ]
        },
        {
            "name" : "leg.B.R",
            "rotation" : [
                2.2197249904820637e-07,
                -0.7071068286895752,
                0.7071068286895752,
                -2.2197249904820637e-07
            ],
            "translation" : [
                -0.35821333527565,
                0.6882361769676208,
                0.7199999094009399
            ]
        },
        {
            "children" : [
                4,
                5,
                6,
                7,
                8
            ],
            "name" : "root",
            "rotation" : [
                -0.7071068286895752,
                7.850462820808426e-17,
                7.850462820808426e-17,
                0.7071068286895752
            ]
        },
        {
            "mesh" : 0,
            "name" : "Cat_LOD0",
            "skin" : 0
        },
        {
            "mesh" : 1,
            "name" : "Cat_LOD1",
            "skin" : 0
        },
        {
            "mesh" : 2,
            "name" : "Cat_LOD2",
            "skin" : 0
        },
        {
            "mesh" : 3,
            "name" : "Cat_LOD3",
            "skin" : 0
        },
        {
            "children" : [
                10,
                11,
                12,
                13,
                9
            ],
            "name" : "Rig"
        }
    ],
    "materials" : [
        {
            "doubleSided" : true,
            "emissiveFactor" : [
                0,
                0,
                0
            ],
            "name" : "Mat_Cat",
            "pbrMetallicRoughness" : {
                "baseColorTexture" : {
                    "index" : 0,
                    "texCoord" : 0
                },
                "metallicFactor" : 0,
                "roughnessFactor" : 0.5
            }
        }
    ],
    "meshes" : [
        {
            "name" : "Cat",
            "primitives" : [
                {
                    "attributes" : {
                        "POSITION" : 0,
                        "NORMAL" : 1,
                        "TEXCOORD_0" : 2,
                        "COLOR_0" : 3,
                        "JOINTS_0" : 4,
                        "WEIGHTS_0" : 5
                    },
                    "indices" : 6,
                    "material" : 0
                }
            ]
        },
        {
            "name" : "Cat.008",
            "primitives" : [
                {
                    "attributes" : {
                        "POSITION" : 8,
                        "NORMAL" : 9,
                        "TEXCOORD_0" : 10,
                        "COLOR_0" : 11,
                        "JOINTS_0" : 12,
                        "WEIGHTS_0" : 13
                    },
                    "indices" : 14,
                    "material" : 0
                }
            ]
        },
        {
            "name" : "Cat.009",
            "primitives" : [
                {
                    "attributes" : {
                        "POSITION" : 15,
                        "NORMAL" : 16,
                        "TEXCOORD_0" : 17,
                        "COLOR_0" : 18,
                        "JOINTS_0" : 19,
                        "WEIGHTS_0" : 20
                    },
                    "indices" : 21,
                    "material" : 0
                }
            ]
        },
        {
            "name" : "Cat.001",
            "primitives" : [
                {
                    "attributes" : {
                        "POSITION" : 22,
                        "NORMAL" : 23,
                        "TEXCOORD_0" : 24,
                        "COLOR_0" : 25,
                        "JOINTS_0" : 26,
                        "WEIGHTS_0" : 27
                    },
                    "indices" : 28,
                    "material" : 0
                }
            ]
        }
    ],
    "textures" : [
        {
            "source" : 0
        }
    ],
    "images" : [
        {
            "bufferView" : 7,
            "mimeType" : "image/png",
            "name" : "Tex_Cat"
        }
    ],
    "skins" : [
        {
            "inverseBindMatrices" : 7,
            "joints" : [
                9,
                4,
                0,
                1,
                3,
                2,
                5,
                6,
                7,
                8
            ],
            "name" : "Rig"
        }
    ],
    "accessors" : [
        {
            "bufferView" : 0,
            "componentType" : 5126,
            "count" : 4051,
            "max" : [
                0.5838635563850403,
                2.183753728866577,
                1.0144352912902832
            ],
            "min" : [
                -0.5838635563850403,
                0.009748059324920177,
                -1.8965989351272583
            ],
            "type" : "VEC3"
        },
        {
            "bufferView" : 1,
            "componentType" : 5126,
            "count" : 4051,
            "type" : "VEC3"
        },
        {
            "bufferView" : 2,
            "componentType" : 5126,
            "count" : 4051,
            "type" : "VEC2"
        },
        {
            "bufferView" : 3,
            "componentType" : 5126,
            "count" : 4051,
            "type" : "VEC4"
        },
        {
            "bufferView" : 4,
            "componentType" : 5123,
            "count" : 4051,
            "type" : "VEC4"
        },
        {
            "bufferView" : 5,
            "componentType" : 5126,
            "count" : 4051,
            "type" : "VEC4"
        },
        {
            "bufferView" : 6,
            "componentType" : 5123,
            "count" : 19560,
            "type" : "SCALAR"
        },
        {
            "bufferView" : 8,
            "componentType" : 5126,
            "count" : 10,
            "type" : "MAT4"
        },
        {
            "bufferView" : 9,
            "componentType" : 5126,
            "count" : 1387,
            "max" : [
                0.5838635563850403,
                2.1806254386901855,
                1.0116784572601318
            ],
            "min" : [
                -0.5838635563850403,
                0.009748059324920177,
                -1.891969084739685
            ],
            "type" : "VEC3"
        },
        {
            "bufferView" : 10,
            "componentType" : 5126,
            "count" : 1387,
            "type" : "VEC3"
        },
        {
            "bufferView" : 11,
            "componentType" : 5126,
            "count" : 1387,
            "type" : "VEC2"
        },
        {
            "bufferView" : 12,
            "componentType" : 5126,
            "count" : 1387,
            "type" : "VEC4"
        },
        {
            "bufferView" : 13,
            "componentType" : 5123,
            "count" : 1387,
            "type" : "VEC4"
        },
        {
            "bufferView" : 14,
            "componentType" : 5126,
            "count" : 1387,
            "type" : "VEC4"
        },
        {
            "bufferView" : 15,
            "componentType" : 5123,
            "count" : 5136,
            "type" : "SCALAR"
        },
        {
            "bufferView" : 16,
            "componentType" : 5126,
            "count" : 1369,
            "max" : [
                0.5815320014953613,
                2.1806254386901855,
                1.0116784572601318
            ],
            "min" : [
                -0.5815319418907166,
                0.009748059324920177,
                -1.878278136253357
            ],
            "type" : "VEC3"
        },
        {
            "bufferView" : 17,
            "componentType" : 5126,
            "count" : 1369,
            "type" : "VEC3"
        },
        {
            "bufferView" : 18,
            "componentType" : 5126,
            "count" : 1369,
            "type" : "VEC2"
        },
        {
            "bufferView" : 19,
            "componentType" : 5126,
            "count" : 1369,
            "type" : "VEC4"
        },
        {
            "bufferView" : 20,
            "componentType" : 5123,
            "count" : 1369,
            "type" : "VEC4"
        },
        {
            "bufferView" : 21,
            "componentType" : 5126,
            "count" : 1369,
            "type" : "VEC4"
        },
        {
            "bufferView" : 22,
            "componentType" : 5123,
            "count" : 2508,
            "type" : "SCALAR"
        },
        {
            "bufferView" : 23,
            "componentType" : 5126,
            "count" : 1146,
            "max" : [
                0.5815320014953613,
                2.1806254386901855,
                1.0116784572601318
            ],
            "min" : [
                -0.5815320014953613,
                -0.0009418502449989319,
                -1.878278136253357
            ],
            "type" : "VEC3"
        },
        {
            "bufferView" : 24,
            "componentType" : 5126,
            "count" : 1146,
            "type" : "VEC3"
        },
        {
            "bufferView" : 25,
            "componentType" : 5126,
            "count" : 1146,
            "type" : "VEC2"
        },
        {
            "bufferView" : 26,
            "componentType" : 5126,
            "count" : 1146,
            "type" : "VEC4"
        },
        {
            "bufferView" : 27,
            "componentType" : 5123,
            "count" : 1146,
            "type" : "VEC4"
        },
        {
            "bufferView" : 28,
            "componentType" : 5126,
            "count" : 1146,
            "type" : "VEC4"
        },
        {
            "bufferView" : 29,
            "componentType" : 5123,
            "count" : 1782,
            "type" : "SCALAR"
        }
    ],
    "bufferViews" : [
        {
            "buffer" : 0,
            "byteLength" : 48612,
            "byteOffset" : 0
        },
        {
            "buffer" : 0,
            "byteLength" : 48612,
            "byteOffset" : 48612
        },
        {
            "buffer" : 0,
            "byteLength" : 32408,
            "byteOffset" : 97224
        },
        {
            "buffer" : 0,
            "byteLength" : 64816,
            "byteOffset" : 129632
        },
        {
            "buffer" : 0,
            "byteLength" : 32408,
            "byteOffset" : 194448
        },
        {
            "buffer" : 0,
            "byteLength" : 64816,
            "byteOffset" : 226856
        },
        {
            "buffer" : 0,
            "byteLength" : 39120,
            "byteOffset" : 291672
        },
        {
            "buffer" : 0,
            "byteLength" : 133,
            "byteOffset" : 330792
        },
        {
            "buffer" : 0,
            "byteLength" : 640,
            "byteOffset" : 330928
        },
        {
            "buffer" : 0,
            "byteLength" : 16644,
            "byteOffset" : 331568
        },
        {
            "buffer" : 0,
            "byteLength" : 16644,
            "byteOffset" : 348212
        },
        {
            "buffer" : 0,
            "byteLength" : 11096,
            "byteOffset" : 364856
        },
        {
            "buffer" : 0,
            "byteLength" : 22192,
            "byteOffset" : 375952
        },
        {
            "buffer" : 0,
            "byteLength" : 11096,
            "byteOffset" : 398144
        },
        {
            "buffer" : 0,
            "byteLength" : 22192,
            "byteOffset" : 409240
        },
        {
            "buffer" : 0,
            "byteLength" : 10272,
            "byteOffset" : 431432
        },
        {
            "buffer" : 0,
            "byteLength" : 16428,
            "byteOffset" : 441704
        },
        {
            "buffer" : 0,
            "byteLength" : 16428,
            "byteOffset" : 458132
        },
        {
            "buffer" : 0,
            "byteLength" : 10952,
            "byteOffset" : 474560
        },
        {
            "buffer" : 0,
            "byteLength" : 21904,
            "byteOffset" : 485512
        },
        {
            "buffer" : 0,
            "byteLength" : 10952,
            "byteOffset" : 507416
        },
        {
            "buffer" : 0,
            "byteLength" : 21904,
            "byteOffset" : 518368
        },
        {
            "buffer" : 0,
            "byteLength" : 5016,
            "byteOffset" : 540272
        },
        {
            "buffer" : 0,
            "byteLength" : 13752,
            "byteOffset" : 545288
        },
        {
            "buffer" : 0,
            "byteLength" : 13752,
            "byteOffset" : 559040
        },
        {
            "buffer" : 0,
            "byteLength" : 9168,
            "byteOffset" : 572792
        },
        {
            "buffer" : 0,
            "byteLength" : 18336,
            "byteOffset" : 581960
        },
        {
            "buffer" : 0,
            "byteLength" : 9168,
            "byteOffset" : 600296
        },
        {
            "buffer" : 0,
            "byteLength" : 18336,
            "byteOffset" : 609464
        },
        {
            "buffer" : 0,
            "byteLength" : 3564,
            "byteOffset" : 627800
        }
    ],
    "buffers" : [
        {
            "byteLength" : 631364,
            "uri" : "data:application/octet-stream;base64,"
        }
    ]
}
